<?xml version="1.0" encoding="utf-8"?>
<!-- Generator: Adobe Illustrator 23.0.3, SVG Export Plug-In . SVG Version: 6.00 Build 0)  -->
<svg version="1.1" id="Icons" xmlns="http://www.w3.org/2000/svg" xmlns:xlink="http://www.w3.org/1999/xlink" x="0px" y="0px"
	 viewBox="0 0 32 32" style="enable-background:new 0 0 32 32;" xml:space="preserve">
<path d="M26.6,15.2l-9-7c-0.3-0.2-0.7-0.3-1.1-0.1C16.2,8.3,16,8.6,16,9v5L8.6,8.2C8.3,8,7.9,7.9,7.6,8.1C7.2,8.3,7,8.6,7,9v14
	c0,0.4,0.2,0.7,0.6,0.9C7.7,24,7.9,24,8,24c0.2,0,0.4-0.1,0.6-0.2L16,18v5c0,0.4,0.2,0.7,0.6,0.9C16.7,24,16.9,24,17,24
	c0.2,0,0.4-0.1,0.6-0.2l9-7c0.2-0.2,0.4-0.5,0.4-0.8S26.9,15.4,26.6,15.2z"/>
</svg>
