<?xml version="1.0" encoding="utf-8"?>
<!-- Generator: Adobe Illustrator 23.0.3, SVG Export Plug-In . SVG Version: 6.00 Build 0)  -->
<svg version="1.1" id="Icons" xmlns="http://www.w3.org/2000/svg" xmlns:xlink="http://www.w3.org/1999/xlink" x="0px" y="0px"
	 viewBox="0 0 32 32" style="enable-background:new 0 0 32 32;" xml:space="preserve">
<g>
	<path d="M14,8H9C8.4,8,8,8.4,8,9v14c0,0.6,0.4,1,1,1h5c0.6,0,1-0.4,1-1V9C15,8.4,14.6,8,14,8z"/>
	<path d="M23,8h-5c-0.6,0-1,0.4-1,1v14c0,0.6,0.4,1,1,1h5c0.6,0,1-0.4,1-1V9C24,8.4,23.6,8,23,8z"/>
</g>
</svg>
