<?xml version="1.0" encoding="utf-8"?>
<!-- Generator: Adobe Illustrator 23.0.3, SVG Export Plug-In . SVG Version: 6.00 Build 0)  -->
<svg version="1.1" id="Icons" xmlns="http://www.w3.org/2000/svg" xmlns:xlink="http://www.w3.org/1999/xlink" x="0px" y="0px"
	 viewBox="0 0 32 32" style="enable-background:new 0 0 32 32;" xml:space="preserve">
<path d="M24.4,8.1c-0.3-0.2-0.8-0.1-1.1,0.1L16,14V9c0-0.4-0.2-0.7-0.6-0.9c-0.3-0.2-0.8-0.1-1.1,0.1l-9,7C5.1,15.4,5,15.7,5,16
	s0.1,0.6,0.4,0.8l9,7c0.2,0.1,0.4,0.2,0.6,0.2c0.1,0,0.3,0,0.4-0.1c0.3-0.2,0.6-0.5,0.6-0.9v-5l7.4,5.7c0.2,0.1,0.4,0.2,0.6,0.2
	c0.1,0,0.3,0,0.4-0.1c0.3-0.2,0.6-0.5,0.6-0.9V9C25,8.6,24.8,8.3,24.4,8.1z"/>
</svg>
